<svg xmlns="http://www.w3.org/2000/svg" viewBox="0 0 1200 700"><defs><linearGradient id="g" y2="1"><stop stop-color="#0a0b0d"/><stop offset=".5" stop-color="#21130d"/><stop offset="1" stop-color="#050506"/></linearGradient><linearGradient id="w"><stop stop-color="#7b1f1f"/><stop offset=".5" stop-color="#c18435"/><stop offset="1" stop-color="#34140f"/></linearGradient></defs><rect width="1200" height="700" fill="url(#g)"/><path d="M0 430 Q150 350 300 430 T600 430 T900 430 T1200 430 V700 H0Z" fill="url(#w)" opacity=".7"/><path d="M0 460 Q150 390 300 460 T600 460 T900 460 T1200 460" fill="none" stroke="#e1b65f" stroke-width="4" opacity=".7"/><g stroke="#8f6b37" stroke-width="7" opacity=".8"><path d="M160 470l80 130M270 445l75 155M940 445l-75 155M1050 470l-80 130"/></g><circle cx="600" cy="260" r="95" fill="#100d0b" stroke="#d3ad5d" stroke-width="3"/><path d="M540 245 Q600 205 660 245 M555 290 Q600 310 645 290" fill="none" stroke="#ead39d" stroke-width="7" stroke-linecap="round"/><text x="600" y="620" text-anchor="middle" fill="#ead39d" font-family="Georgia,serif" font-size="34">Naraka · Vaitaraṇī · Consequence</text></svg>