<svg xmlns="http://www.w3.org/2000/svg" viewBox="0 0 1200 700"><defs><linearGradient id="g" x2="0" y2="1"><stop stop-color="#21180f"/><stop offset="1" stop-color="#090b0f"/></linearGradient></defs><rect width="1200" height="700" fill="url(#g)"/><circle cx="600" cy="270" r="205" fill="#4a3820" opacity=".35"/><path d="M185 390 Q390 185 600 390 Q810 185 1015 390 Q870 330 760 455 Q600 330 440 455 Q330 330 185 390Z" fill="#8e7140" opacity=".55"/><ellipse cx="600" cy="455" rx="105" ry="145" fill="#244c55"/><circle cx="600" cy="275" r="65" fill="#315e69"/><path d="M550 260 Q600 210 650 260" fill="none" stroke="#d6b46a" stroke-width="12"/><path d="M575 310 Q600 330 625 310" fill="none" stroke="#d6b46a" stroke-width="8"/><path d="M500 410 Q600 350 700 410" fill="none" stroke="#d6b46a" stroke-width="18"/><path d="M475 470 Q600 430 725 470" fill="none" stroke="#8e7140" stroke-width="24"/><path d="M555 505 L470 590 M645 505 L730 590" stroke="#d6b46a" stroke-width="24"/><text x="600" y="650" text-anchor="middle" fill="#e7d6ad" font-family="Georgia,serif" font-size="34">Viṣṇu · Garuḍa · The Cosmic Dialogue</text></svg>
